<svg xmlns="http://www.w3.org/2000/svg" viewBox="0 0 64 64"><circle cx="8" cy="17" r="1.5" fill="none" stroke="#0096ff" stroke-miterlimit="10"/><circle cx="8" cy="23" r="1.5" fill="none" stroke="#0096ff" stroke-miterlimit="10"/><circle cx="8" cy="29" r="1.5" fill="none" stroke="#0096ff" stroke-miterlimit="10"/><circle cx="8" cy="35" r="1.5" fill="none" stroke="#0096ff" stroke-miterlimit="10"/><circle cx="8" cy="41" r="1.5" fill="none" stroke="#0096ff" stroke-miterlimit="10"/><circle cx="8" cy="47" r="1.5" fill="none" stroke="#0096ff" stroke-miterlimit="10"/><circle cx="14" cy="17" r="1.5" fill="none" stroke="#0096ff" stroke-miterlimit="10"/><circle cx="14" cy="23" r="1.5" fill="none" stroke="#0096ff" stroke-miterlimit="10"/><circle cx="14" cy="29" r="1.5" fill="none" stroke="#0096ff" stroke-miterlimit="10"/><circle cx="14" cy="35" r="1.5" fill="none" stroke="#0096ff" stroke-miterlimit="10"/><circle cx="14" cy="41" r="1.5" fill="none" stroke="#0096ff" stroke-miterlimit="10"/><circle cx="14" cy="47" r="1.5" fill="none" stroke="#0096ff" stroke-miterlimit="10"/><circle cx="20" cy="23" r="1.5" fill="none" stroke="#0096ff" stroke-miterlimit="10"/><circle cx="20" cy="29" r="1.5" fill="none" stroke="#0096ff" stroke-miterlimit="10"/><circle cx="20" cy="35" r="1.5" fill="none" stroke="#0096ff" stroke-miterlimit="10"/><circle cx="20" cy="41" r="1.5" fill="none" stroke="#0096ff" stroke-miterlimit="10"/><circle cx="20" cy="17" r="1.5" fill="none" stroke="#0096ff" stroke-miterlimit="10"/><circle cx="20" cy="47" r="1.5" fill="none" stroke="#0096ff" stroke-miterlimit="10"/><rect width="9" height="3" x="24.5" y="15.5" fill="none" stroke="#14aa8c" stroke-miterlimit="10" rx="1.125"/><rect width="9" height="3" x="24.5" y="21.5" fill="none" stroke="#14aa8c" stroke-miterlimit="10" rx="1.125"/><rect width="9" height="3" x="24.5" y="27.5" fill="none" stroke="#14aa8c" stroke-miterlimit="10" rx="1.125"/><rect width="9" height="3" x="24.5" y="33.5" fill="none" stroke="#14aa8c" stroke-miterlimit="10" rx="1.125"/><rect width="9" height="3" x="24.5" y="39.5" fill="none" stroke="#14aa8c" stroke-miterlimit="10" rx="1.125"/><rect width="9" height="3" x="24.5" y="45.5" fill="none" stroke="#14aa8c" stroke-miterlimit="10" rx="1.125"/><rect width="9" height="3" x="36.5" y="21.5" fill="none" stroke="#14aa8c" stroke-miterlimit="10" rx="1.125"/><rect width="9" height="3" x="36.5" y="27.5" fill="none" stroke="#14aa8c" stroke-miterlimit="10" rx="1.125"/><rect width="9" height="3" x="36.5" y="33.5" fill="none" stroke="#14aa8c" stroke-miterlimit="10" rx="1.125"/><rect width="9" height="3" x="36.5" y="39.5" fill="none" stroke="#14aa8c" stroke-miterlimit="10" rx="1.125"/><rect width="9" height="3" x="48.5" y="27.5" fill="none" stroke="#14aa8c" stroke-miterlimit="10" rx="1.125"/><rect width="9" height="3" x="48.5" y="33.5" fill="none" stroke="#14aa8c" stroke-miterlimit="10" rx="1.125"/></svg>